<?xml version="1.0" encoding="UTF-8" standalone="no"?>
<svg
   xmlns:dc="http://purl.org/dc/elements/1.1/"
   xmlns:cc="http://creativecommons.org/ns#"
   xmlns:rdf="http://www.w3.org/1999/02/22-rdf-syntax-ns#"
   xmlns:svg="http://www.w3.org/2000/svg"
   xmlns="http://www.w3.org/2000/svg"
   id="svg8"
   version="1.1"
   viewBox="0 0 52.916665 52.916668"
   height="200"
   width="200">
  <defs
     id="defs2" />
  <metadata
     id="metadata5">
    <rdf:RDF>
      <cc:Work
         rdf:about="">
        <dc:format>image/svg+xml</dc:format>
        <dc:type
           rdf:resource="http://purl.org/dc/dcmitype/StillImage" />
        <dc:title></dc:title>
      </cc:Work>
    </rdf:RDF>
  </metadata>
  <g
     transform="translate(0,-244.08332)"
     id="layer1">
    <g
       transform="translate(-74.2723,149.82998)"
       id="g5027">
      <path
         style="opacity:1;fill:none;fill-opacity:1;stroke:#271010;stroke-width:2.64583325;stroke-linecap:round;stroke-linejoin:miter;stroke-miterlimit:4;stroke-dasharray:none;stroke-dashoffset:0;stroke-opacity:1;paint-order:markers stroke fill"
         d="m 75.595217,95.576258 v 25.135422 25.13541 h 25.135423 25.13541 V 120.71168 95.576258 h -25.13541 z"
         id="rect4485" />
      <g
         aria-label="N
"
         style="font-style:normal;font-variant:normal;font-weight:normal;font-stretch:normal;font-size:17.07100105px;line-height:1.25;font-family:'Century Gothic';-inkscape-font-specification:'Century Gothic, Normal';font-variant-ligatures:normal;font-variant-caps:normal;font-variant-numeric:normal;font-feature-settings:normal;text-align:start;letter-spacing:0px;word-spacing:0px;writing-mode:lr-tb;text-anchor:start;fill:#000000;fill-opacity:1;stroke:none;stroke-width:0.25251463"
         id="text4495"
         transform="matrix(1.0477942,0,0,1.047794,-3.6130113,-6.9706134)">
        <path
           d="m 83.657897,116.87666 v -12.26144 h 0.266735 l 8.15207,9.38571 v -9.38571 h 1.20864 v 12.26144 h -0.27507 l -8.085386,-9.26902 v 9.26902 z"
           style="fill:#000000;stroke-width:0.25251463"
           id="path5004" />
      </g>
      <g
         aria-label="V"
         style="font-style:normal;font-variant:normal;font-weight:normal;font-stretch:normal;font-size:17.07100105px;line-height:1.25;font-family:'Century Gothic';-inkscape-font-specification:'Century Gothic, Normal';font-variant-ligatures:normal;font-variant-caps:normal;font-variant-numeric:normal;font-feature-settings:normal;text-align:start;letter-spacing:0px;word-spacing:0px;writing-mode:lr-tb;text-anchor:start;fill:#000000;fill-opacity:1;stroke:none;stroke-width:0.25251463"
         id="text4503"
         transform="matrix(1.0477942,0,0,1.047794,-3.6130113,-6.9706134)">
        <path
           d="m 105.26608,104.61522 h 1.33367 l 4.05936,9.4774 4.13439,-9.4774 h 1.33367 l -5.33469,12.26144 h -0.26673 z"
           style="font-style:normal;font-variant:normal;font-weight:normal;font-stretch:normal;font-size:17.07100105px;font-family:'Century Gothic';-inkscape-font-specification:'Century Gothic, Normal';font-variant-ligatures:normal;font-variant-caps:normal;font-variant-numeric:normal;font-feature-settings:normal;text-align:start;writing-mode:lr-tb;text-anchor:start;fill:#000000;stroke-width:0.25251463"
           id="path5001" />
      </g>
      <g
         aria-label="R"
         style="font-style:normal;font-variant:normal;font-weight:normal;font-stretch:normal;font-size:17.07100105px;line-height:1.25;font-family:'Century Gothic';-inkscape-font-specification:'Century Gothic, Normal';font-variant-ligatures:normal;font-variant-caps:normal;font-variant-numeric:normal;font-feature-settings:normal;text-align:start;letter-spacing:0px;word-spacing:0px;writing-mode:lr-tb;text-anchor:start;fill:#000000;fill-opacity:1;stroke:none;stroke-width:0.25251463"
         id="text4507"
         transform="matrix(1.0477942,0,0,1.047794,-3.6130113,-6.9706134)">
        <path
           d="m 84.549795,126.84021 h 2.442287 q 2.042185,0 2.767369,0.16671 1.091944,0.25006 1.775451,1.07527 0.683507,0.81687 0.683507,2.01718 0,1.00025 -0.475121,1.75878 -0.466785,0.75852 -1.342007,1.15029 -0.875222,0.38343 -2.417281,0.39177 l 4.409453,5.70144 h -1.517052 l -4.401117,-5.70144 h -0.700178 v 5.70144 h -1.225311 z m 1.225311,1.2003 v 4.16773 l 2.108869,0.0167 q 1.225311,0 1.808793,-0.23339 0.591816,-0.2334 0.916899,-0.74186 0.333418,-0.5168 0.333418,-1.15029 0,-0.61682 -0.333418,-1.11695 -0.333418,-0.50846 -0.875222,-0.72519 -0.541804,-0.21672 -1.800457,-0.21672 z"
           style="font-style:normal;font-variant:normal;font-weight:normal;font-stretch:normal;font-size:17.07100105px;font-family:'Century Gothic';-inkscape-font-specification:'Century Gothic, Normal';font-variant-ligatures:normal;font-variant-caps:normal;font-variant-numeric:normal;font-feature-settings:normal;text-align:start;writing-mode:lr-tb;text-anchor:start;fill:#000000;stroke-width:0.25251463"
           id="path4998" />
      </g>
      <g
         aria-label="R"
         style="font-style:normal;font-variant:normal;font-weight:normal;font-stretch:normal;font-size:17.07100105px;line-height:1.25;font-family:'Century Gothic';-inkscape-font-specification:'Century Gothic, Normal';font-variant-ligatures:normal;font-variant-caps:normal;font-variant-numeric:normal;font-feature-settings:normal;text-align:start;letter-spacing:0px;word-spacing:0px;writing-mode:lr-tb;text-anchor:start;fill:#000000;fill-opacity:1;stroke:none;stroke-width:0.25251463"
         id="text4521"
         transform="matrix(1.0477942,0,0,1.047794,-3.6130113,-6.9706134)">
        <path
           d="m 106.77479,126.84021 h 2.44228 q 2.04219,0 2.76737,0.16671 1.09195,0.25006 1.77545,1.07527 0.68351,0.81687 0.68351,2.01718 0,1.00025 -0.47512,1.75878 -0.46679,0.75852 -1.34201,1.15029 -0.87522,0.38343 -2.41728,0.39177 l 4.40945,5.70144 h -1.51705 l -4.40112,-5.70144 h -0.70017 v 5.70144 h -1.22531 z m 1.22531,1.2003 v 4.16773 l 2.10887,0.0167 q 1.22531,0 1.80879,-0.23339 0.59182,-0.2334 0.9169,-0.74186 0.33342,-0.5168 0.33342,-1.15029 0,-0.61682 -0.33342,-1.11695 -0.33342,-0.50846 -0.87522,-0.72519 -0.54181,-0.21672 -1.80046,-0.21672 z"
           style="font-style:normal;font-variant:normal;font-weight:normal;font-stretch:normal;font-size:17.07100105px;font-family:'Century Gothic';-inkscape-font-specification:'Century Gothic, Normal';font-variant-ligatures:normal;font-variant-caps:normal;font-variant-numeric:normal;font-feature-settings:normal;text-align:start;writing-mode:lr-tb;text-anchor:start;fill:#000000;stroke-width:0.25251463"
           id="path4995" />
      </g>
    </g>
  </g>
</svg>
